<svg xmlns="http://www.w3.org/2000/svg" width="48" height="48" viewBox="0 0 48 48" fill="none">
  <!-- Shield shape - represents encryption/security -->
  <path d="M24 2L6 10v12c0 11.1 7.7 21.5 18 24 10.3-2.5 18-12.9 18-24V10L24 2z" fill="#0891b2" opacity="0.15"/>
  <path d="M24 2L6 10v12c0 11.1 7.7 21.5 18 24 10.3-2.5 18-12.9 18-24V10L24 2z" stroke="#0891b2" stroke-width="2" fill="none" stroke-linejoin="round"/>
  <!-- Branch/merge lines - represents version control -->
  <!-- Main trunk -->
  <line x1="24" y1="12" x2="24" y2="36" stroke="#0891b2" stroke-width="2.5" stroke-linecap="round"/>
  <!-- Left branch -->
  <path d="M24 18 C20 18 16 22 16 26" stroke="#06b6d4" stroke-width="2" stroke-linecap="round" fill="none"/>
  <!-- Right branch -->
  <path d="M24 22 C28 22 32 18 32 14" stroke="#06b6d4" stroke-width="2" stroke-linecap="round" fill="none"/>
  <!-- Merge back from left -->
  <path d="M16 26 C16 30 20 32 24 32" stroke="#06b6d4" stroke-width="2" stroke-linecap="round" fill="none"/>
  <!-- Commit dots -->
  <circle cx="24" cy="12" r="2.5" fill="#0891b2"/>
  <circle cx="24" cy="18" r="2" fill="#0891b2"/>
  <circle cx="24" cy="22" r="2" fill="#0891b2"/>
  <circle cx="32" cy="14" r="2" fill="#06b6d4"/>
  <circle cx="16" cy="26" r="2" fill="#06b6d4"/>
  <circle cx="24" cy="32" r="2" fill="#0891b2"/>
  <circle cx="24" cy="36" r="2.5" fill="#0891b2"/>
</svg>
